<svg width="284" height="96" viewBox="0 0 284 96" fill="none" xmlns="http://www.w3.org/2000/svg">
  <defs>
    <linearGradient id="ship3-hull" x1="30" y1="22" x2="240" y2="76" gradientUnits="userSpaceOnUse">
      <stop stop-color="#BCCCDD"/>
      <stop offset="0.3" stop-color="#8198AC"/>
      <stop offset="0.64" stop-color="#4E657A"/>
      <stop offset="1" stop-color="#263748"/>
    </linearGradient>
    <linearGradient id="ship3-deck" x1="74" y1="24" x2="198" y2="52" gradientUnits="userSpaceOnUse">
      <stop stop-color="#EDF7FF"/>
      <stop offset="0.42" stop-color="#A8BED0"/>
      <stop offset="1" stop-color="#61788C"/>
    </linearGradient>
    <linearGradient id="ship3-shadow" x1="142" y1="58" x2="142" y2="82" gradientUnits="userSpaceOnUse">
      <stop stop-color="#132133" stop-opacity="0"/>
      <stop offset="1" stop-color="#132133" stop-opacity="0.56"/>
    </linearGradient>
    <radialGradient id="ship3-glow" cx="0" cy="0" r="1" gradientUnits="userSpaceOnUse" gradientTransform="translate(150 27) rotate(90) scale(30 102)">
      <stop stop-color="#F8FCFF" stop-opacity="0.6"/>
      <stop offset="1" stop-color="#F8FCFF" stop-opacity="0"/>
    </radialGradient>
    <filter id="ship3-drop" x="0" y="0" width="284" height="96" filterUnits="userSpaceOnUse" color-interpolation-filters="sRGB">
      <feDropShadow dx="0" dy="10" stdDeviation="10" flood-color="#05101A" flood-opacity="0.42"/>
    </filter>
  </defs>

  <g filter="url(#ship3-drop)">
    <ellipse cx="144" cy="70" rx="106" ry="8" fill="url(#ship3-shadow)"/>
    <path d="M28 54L50 26H210L258 46L238 68H62L28 54Z" fill="url(#ship3-hull)"/>
    <path d="M58 30H174L191 15H80L58 30Z" fill="url(#ship3-deck)"/>
    <path d="M28 54L50 26H210L258 46L238 68H62L28 54Z" fill="url(#ship3-glow)"/>
    <path d="M44 49H247" stroke="#F1FAFF" stroke-opacity="0.18" stroke-width="4" stroke-linecap="round"/>
    <path d="M66 61H228" stroke="#18324A" stroke-opacity="0.36" stroke-width="4" stroke-linecap="round"/>
    <rect x="108" y="21" width="24" height="16" rx="5" fill="#ECF8FF" fill-opacity="0.82"/>
    <rect x="142" y="21" width="22" height="16" rx="5" fill="#DCEBF6" fill-opacity="0.72"/>
    <rect x="92" y="21" width="10" height="16" rx="4" fill="#D2E4EF" fill-opacity="0.5"/>
    <path d="M208 34L225 40L212 43L208 34Z" fill="#DCECF7" fill-opacity="0.44"/>
  </g>
</svg>
