<svg width="240" height="96" viewBox="0 0 240 96" fill="none" xmlns="http://www.w3.org/2000/svg">
  <defs>
    <linearGradient id="ship2-hull" x1="28" y1="22" x2="202" y2="74" gradientUnits="userSpaceOnUse">
      <stop stop-color="#B7C8D8"/>
      <stop offset="0.34" stop-color="#7C93A7"/>
      <stop offset="0.68" stop-color="#4B6176"/>
      <stop offset="1" stop-color="#27384A"/>
    </linearGradient>
    <linearGradient id="ship2-deck" x1="74" y1="24" x2="167" y2="50" gradientUnits="userSpaceOnUse">
      <stop stop-color="#E5F1FA"/>
      <stop offset="0.45" stop-color="#9EB5C8"/>
      <stop offset="1" stop-color="#60778A"/>
    </linearGradient>
    <linearGradient id="ship2-shadow" x1="120" y1="58" x2="120" y2="82" gradientUnits="userSpaceOnUse">
      <stop stop-color="#132133" stop-opacity="0"/>
      <stop offset="1" stop-color="#132133" stop-opacity="0.55"/>
    </linearGradient>
    <radialGradient id="ship2-glow" cx="0" cy="0" r="1" gradientUnits="userSpaceOnUse" gradientTransform="translate(128 28) rotate(90) scale(28 84)">
      <stop stop-color="#F5FBFF" stop-opacity="0.56"/>
      <stop offset="1" stop-color="#F5FBFF" stop-opacity="0"/>
    </radialGradient>
    <filter id="ship2-drop" x="0" y="0" width="240" height="96" filterUnits="userSpaceOnUse" color-interpolation-filters="sRGB">
      <feDropShadow dx="0" dy="10" stdDeviation="10" flood-color="#05101A" flood-opacity="0.42"/>
    </filter>
  </defs>

  <g filter="url(#ship2-drop)">
    <ellipse cx="122" cy="70" rx="88" ry="8" fill="url(#ship2-shadow)"/>
    <path d="M26 54L48 26H170L214 46L196 68H60L26 54Z" fill="url(#ship2-hull)"/>
    <path d="M56 30H136L150 16H78L56 30Z" fill="url(#ship2-deck)"/>
    <path d="M26 54L48 26H170L214 46L196 68H60L26 54Z" fill="url(#ship2-glow)"/>
    <path d="M42 49H205" stroke="#EAF6FF" stroke-opacity="0.18" stroke-width="4" stroke-linecap="round"/>
    <path d="M63 61H188" stroke="#17314A" stroke-opacity="0.34" stroke-width="4" stroke-linecap="round"/>
    <rect x="108" y="22" width="22" height="15" rx="5" fill="#EAF6FF" fill-opacity="0.78"/>
    <rect x="87" y="22" width="12" height="15" rx="4" fill="#D1E2EF" fill-opacity="0.48"/>
    <path d="M175 34L190 40L178 43L175 34Z" fill="#D9EAF5" fill-opacity="0.42"/>
  </g>
</svg>
